<?xml version="1.0" encoding="utf-8"?><svg version="1.1" id="Layer_1" xmlns="http://www.w3.org/2000/svg" xmlns:xlink="http://www.w3.org/1999/xlink" x="0px" y="0px" width="122.881px" height="122.88px" viewBox="0 0 122.881 122.88" enable-background="new 0 0 122.881 122.88" xml:space="preserve"><g><path d="M61.44,0c16.966,0,32.326,6.877,43.444,17.996s17.996,26.479,17.996,43.445c0,16.966-6.878,32.325-17.996,43.444 C93.767,116.003,78.406,122.88,61.44,122.88s-32.326-6.877-43.444-17.995C6.877,93.766,0,78.406,0,61.44 c0-16.966,6.877-32.326,17.996-43.445C29.114,6.877,44.475,0,61.44,0L61.44,0z M103.653,27.788l-75.865,75.864 c9.229,7.367,20.926,11.771,33.652,11.771c14.907,0,28.403-6.043,38.172-15.812s15.812-23.265,15.812-38.172 C115.424,48.713,111.02,37.016,103.653,27.788L103.653,27.788z M22.289,98.607l76.318-76.318 C88.929,13.098,75.844,7.457,61.44,7.457c-14.908,0-28.404,6.042-38.172,15.811C13.5,33.036,7.457,46.532,7.457,61.44 C7.457,75.843,13.098,88.928,22.289,98.607L22.289,98.607z"/></g></svg>